<svg xmlns="http://www.w3.org/2000/svg" width="1024" height="1024" viewBox="0 0 1024 1024">
  <defs>
    <linearGradient id="bg" x1="0" y1="0" x2="1" y2="1">
      <stop offset="0" stop-color="#FFF2B8"/>
      <stop offset="0.55" stop-color="#FFD98A"/>
      <stop offset="1" stop-color="#FFB36B"/>
    </linearGradient>
    <linearGradient id="book" x1="0" y1="0" x2="1" y2="1">
      <stop offset="0" stop-color="#FF6B6B"/>
      <stop offset="1" stop-color="#FF8E53"/>
    </linearGradient>
    <filter id="shadow" x="-20%" y="-20%" width="140%" height="140%">
      <feDropShadow dx="0" dy="18" stdDeviation="18" flood-color="#B86B00" flood-opacity="0.22"/>
    </filter>
  </defs>

  <rect width="1024" height="1024" rx="220" fill="url(#bg)"/>

  <!-- moon -->
  <circle cx="756" cy="210" r="88" fill="#FFF9E6" opacity="0.95"/>
  <circle cx="790" cy="180" r="88" fill="#FFD98A" opacity="0.78"/>

  <!-- bamboo -->
  <g opacity="0.45" stroke="#47A36D" stroke-width="18" stroke-linecap="round">
    <path d="M170 240 C150 420 158 612 126 792"/>
    <path d="M220 290 C205 455 218 610 190 814"/>
    <path d="M810 300 C835 470 820 650 850 800"/>
    <path d="M858 250 C880 430 872 610 910 770"/>
  </g>
  <g fill="#47A36D" opacity="0.42">
    <ellipse cx="192" cy="350" rx="28" ry="82" transform="rotate(45 192 350)"/>
    <ellipse cx="150" cy="470" rx="24" ry="70" transform="rotate(-55 150 470)"/>
    <ellipse cx="842" cy="390" rx="26" ry="78" transform="rotate(-42 842 390)"/>
    <ellipse cx="890" cy="505" rx="24" ry="70" transform="rotate(55 890 505)"/>
  </g>

  <!-- child head -->
  <g filter="url(#shadow)">
    <circle cx="512" cy="365" r="170" fill="#FFD2A6"/>
    <path d="M350 332 C370 190 492 150 610 196 C690 228 718 284 714 356 C656 270 532 270 462 300 C410 322 382 342 350 332Z" fill="#5C3A21"/>
    <circle cx="445" cy="382" r="18" fill="#5C3A21"/>
    <circle cx="579" cy="382" r="18" fill="#5C3A21"/>
    <path d="M462 448 C492 480 536 480 566 448" fill="none" stroke="#A85C38" stroke-width="16" stroke-linecap="round"/>
    <circle cx="394" cy="430" r="30" fill="#FF9AA2" opacity="0.55"/>
    <circle cx="630" cy="430" r="30" fill="#FF9AA2" opacity="0.55"/>
  </g>

  <!-- book -->
  <g filter="url(#shadow)">
    <path d="M250 590 C350 548 430 565 512 632 C594 565 674 548 774 590 L774 806 C675 766 594 778 512 850 C430 778 349 766 250 806Z" fill="url(#book)"/>
    <path d="M512 632 L512 850" stroke="#FFF9E6" stroke-width="12" opacity="0.9"/>
    <path d="M310 636 C372 614 420 628 470 664" fill="none" stroke="#FFF9E6" stroke-width="16" stroke-linecap="round" opacity="0.82"/>
    <path d="M310 700 C370 680 420 692 466 724" fill="none" stroke="#FFF9E6" stroke-width="14" stroke-linecap="round" opacity="0.72"/>
    <path d="M714 636 C652 614 604 628 554 664" fill="none" stroke="#FFF9E6" stroke-width="16" stroke-linecap="round" opacity="0.82"/>
    <path d="M714 700 C654 680 604 692 558 724" fill="none" stroke="#FFF9E6" stroke-width="14" stroke-linecap="round" opacity="0.72"/>
  </g>

  <!-- stars -->
  <g fill="#FFF9E6" opacity="0.95">
    <path d="M270 210 l18 42 46 4 -35 30 10 45 -39 -24 -40 24 10 -45 -35 -30 46 -4z"/>
    <path d="M740 520 l13 30 33 3 -25 21 7 32 -28 -17 -29 17 7 -32 -25 -21 33 -3z"/>
  </g>
</svg>
